name Walk3.mot
datacolumns 19
datarows 17
range 1.93600000 1.95200000
endheader

                time	   L_ground_force_vx	   L_ground_force_vy	   L_ground_force_vz	   L_ground_force_px	   L_ground_force_py	   L_ground_force_pz	   R_ground_force_vx	   R_ground_force_vy	   R_ground_force_vz	   R_ground_force_px	   R_ground_force_py	   R_ground_force_pz	   L_ground_torque_x	   L_ground_torque_y	   L_ground_torque_z	   R_ground_torque_x	   R_ground_torque_y	   R_ground_torque_z	
          1.93600000	        -13.11071293	        105.10522293	         -8.62545546	          0.00007151	          0.00000000	          0.00276180	          0.00000000	         -0.00000000	         -0.00000000	         -0.00000000	          0.00000000	         -0.00000000	          0.00000000	          0.19902102	          0.00000000	          0.00000000	          0.00000000	          0.00000000	
          1.93700000	        -14.94976872	        115.07965995	         -9.58147201	         -0.01898958	          0.00000000	          0.00144883	          0.00000000	         -0.00000000	         -0.00000000	         -0.00000000	          0.00000000	         -0.00000000	          0.00000000	          0.21638270	          0.00000000	          0.00000000	          0.00000000	          0.00000000	
          1.93800000	        -16.83449437	        125.41147308	        -10.56609795	         -0.03799404	          0.00000000	          0.00014529	          0.00000000	         -0.00000000	         -0.00000000	         -0.00000000	          0.00000000	         -0.00000000	          0.00000000	          0.23464442	          0.00000000	          0.00000000	          0.00000000	          0.00000000	
          1.93900000	        -18.76260156	        136.09306598	        -11.57832991	         -0.05689098	          0.00000000	         -0.00114511	          0.00000000	         -0.00000000	         -0.00000000	         -0.00000000	          0.00000000	         -0.00000000	          0.00000000	          0.25381118	          0.00000000	          0.00000000	          0.00000000	          0.00000000	
          1.94000000	        -20.73153889	        147.11488239	        -12.61699939	         -0.07562895	          0.00000000	         -0.00241869	          0.00000000	         -0.00000000	         -0.00000000	         -0.00000000	          0.00000000	         -0.00000000	          0.00000000	          0.27388432	          0.00000000	          0.00000000	          0.00000000	          0.00000000	
          1.94100000	        -22.73847178	        158.46525369	        -13.68076052	         -0.09415603	          0.00000000	         -0.00367176	          0.00000000	         -0.00000000	         -0.00000000	         -0.00000000	          0.00000000	         -0.00000000	          0.00000000	          0.29486114	          0.00000000	          0.00000000	          0.00000000	          0.00000000	
          1.94200000	        -24.78029747	        170.13029294	        -14.76808950	         -0.11242127	          0.00000000	         -0.00490079	          0.00000000	         -0.00000000	         -0.00000000	         -0.00000000	          0.00000000	         -0.00000000	          0.00000000	          0.31673437	          0.00000000	          0.00000000	          0.00000000	          0.00000000	
          1.94300000	        -26.85370425	        182.09385301	        -15.87729739	         -0.13037708	          0.00000000	         -0.00610257	          0.00000000	         -0.00000000	         -0.00000000	         -0.00000000	          0.00000000	         -0.00000000	          0.00000000	          0.33949159	          0.00000000	          0.00000000	         -0.00000000	          0.00000000	
          1.94400000	        -28.95525085	        194.33752300	        -17.00654501	         -0.14798062	          0.00000000	         -0.00727433	          0.00000000	         -0.00000000	         -0.00000000	         -0.00000000	          0.00000000	         -0.00000000	          0.00000000	          0.36311495	          0.00000000	          0.00000000	         -0.00000000	          0.00000000	
          1.94500000	        -31.08144900	        206.84065090	        -18.15385195	         -0.16519400	          0.00000000	         -0.00841372	          0.00000000	         -0.00000000	         -0.00000000	         -0.00000000	          0.00000000	         -0.00000000	          0.00000000	          0.38758139	          0.00000000	          0.00000000	         -0.00000000	          0.00000000	
          1.94600000	        -33.22885169	        219.58041265	        -19.31709983	         -0.18198403	          0.00000000	         -0.00951879	          0.00000000	         -0.00000000	         -0.00000000	         -0.00000000	          0.00000000	         -0.00000000	          0.00000000	          0.41286317	          0.00000000	          0.00000000	         -0.00000000	          0.00000000	
          1.94700000	        -35.39414691	        232.53194786	        -20.49402932	         -0.19832192	          0.00000000	         -0.01058795	          0.00000000	         -0.00000000	         -0.00000000	         -0.00000000	          0.00000000	         -0.00000000	          0.00000000	          0.43892840	          0.00000000	          0.00000000	         -0.00000000	          0.00000000	
          1.94800000	        -37.57424908	        245.66857180	        -21.68222953	         -0.21418303	          0.00000000	         -0.01161994	          0.00000000	         -0.00000000	         -0.00000000	         -0.00000000	          0.00000000	         -0.00000000	          0.00000000	          0.46574175	          0.00000000	          0.00000000	         -0.00000000	          0.00000000	
          1.94900000	        -39.76637909	        258.96206579	        -22.87911914	         -0.22954661	          0.00000000	         -0.01261380	          0.00000000	         -0.00000000	         -0.00000000	         -0.00000000	          0.00000000	         -0.00000000	          0.00000000	          0.49326510	          0.00000000	          0.00000000	         -0.00000000	          0.00000000	
          1.95000000	        -41.96812332	        272.38303620	        -24.08192021	         -0.24439555	          0.00000000	         -0.01356887	          0.00000000	         -0.00000000	         -0.00000000	         -0.00000000	          0.00000000	         -0.00000000	          0.00000000	          0.52145825	          0.00000000	          0.00000000	         -0.00000000	          0.00000000	
          1.95100000	        -44.17746402	        285.90132187	        -25.28762715	         -0.25871613	          0.00000000	         -0.01448476	          0.00000000	         -0.00000000	         -0.00000000	         -0.00000000	          0.00000000	         -0.00000000	          0.00000000	          0.55027952	          0.00000000	          0.00000000	         -0.00000000	          0.00000000	
          1.95200000	        -46.39277720	        299.48642167	        -26.49297547	         -0.27249779	          0.00000000	         -0.01536131	          0.00000000	         -0.00000000	         -0.00000000	         -0.00000000	          0.00000000	         -0.00000000	          0.00000000	          0.57968617	          0.00000000	          0.00000000	         -0.00000000	          0.00000000	
